<svg xmlns="http://www.w3.org/2000/svg" viewBox="0 0 2852 1440"><title>404</title><g id="图层_6" data-name="图层 6"><g opacity="0.3"><rect x="811.54" y="147" width="186.15" height="201.13" fill="#4b4c45"/><rect x="769.82" y="219.75" width="269.6" height="201.13" fill="#707267"/><rect x="729.17" y="275.38" width="350.9" height="1112.62" fill="#b1b2aa"/><rect x="833.65" y="367.38" width="134.8" height="134.8" fill="#d8d7cf"/><rect x="833.65" y="555.67" width="134.8" height="134.8" fill="#d8d7cf"/><rect x="833.65" y="748.24" width="134.8" height="134.8" fill="#d8d7cf"/><rect x="1739" y="653" width="540" height="72" fill="#4b4c45"/><rect x="1697" y="692" width="660" height="90" fill="#707267"/><rect x="1625" y="728" width="756" height="648" fill="#96998a"/><rect x="1367" y="642.81" width="298" height="739.19" fill="#6c92c4"/><rect x="1393.12" y="681.51" width="40.64" height="63.86" fill="#2d5e94"/><rect x="1460.85" y="681.51" width="40.64" height="63.86" fill="#2d5e94"/><rect x="1524.71" y="681.51" width="40.64" height="63.86" fill="#2d5e94"/><rect x="1588.56" y="681.51" width="40.64" height="63.86" fill="#2d5e94"/><rect x="1393.12" y="780.19" width="40.64" height="63.86" fill="#2d5e94"/><rect x="1460.85" y="780.19" width="40.64" height="63.86" fill="#2d5e94"/><rect x="1524.71" y="780.19" width="40.64" height="63.86" fill="#2d5e94"/><rect x="1588.56" y="780.19" width="40.64" height="63.86" fill="#2d5e94"/><rect x="1393.12" y="884.69" width="40.64" height="63.86" fill="#2d5e94"/><rect x="1460.85" y="884.69" width="40.64" height="63.86" fill="#2d5e94"/><rect x="1524.71" y="884.69" width="40.64" height="63.86" fill="#2d5e94"/><rect x="1588.56" y="884.69" width="40.64" height="63.86" fill="#2d5e94"/><rect x="1393.12" y="981.44" width="40.64" height="63.86" fill="#2d5e94"/><rect x="1460.85" y="981.44" width="40.64" height="63.86" fill="#2d5e94"/><rect x="1524.71" y="981.44" width="40.64" height="63.86" fill="#2d5e94"/><rect x="1588.56" y="981.44" width="40.64" height="63.86" fill="#2d5e94"/><rect x="1393.12" y="1084" width="40.64" height="63.86" fill="#2d5e94"/><rect x="1460.85" y="1084" width="40.64" height="63.86" fill="#2d5e94"/><rect x="1524.71" y="1084" width="40.64" height="63.86" fill="#2d5e94"/><rect x="1588.56" y="1084" width="40.64" height="63.86" fill="#2d5e94"/><rect x="1393.12" y="1176.88" width="40.64" height="63.86" fill="#2d5e94"/><rect x="1460.85" y="1176.88" width="40.64" height="63.86" fill="#2d5e94"/><rect x="1524.71" y="1176.88" width="40.64" height="63.86" fill="#2d5e94"/><rect x="1588.56" y="1176.88" width="40.64" height="63.86" fill="#2d5e94"/><rect x="1393.12" y="1271.7" width="40.64" height="63.86" fill="#2d5e94"/><rect x="1460.85" y="1271.7" width="40.64" height="63.86" fill="#2d5e94"/><rect x="1524.71" y="1271.7" width="40.64" height="63.86" fill="#2d5e94"/><rect x="1588.56" y="1271.7" width="40.64" height="63.86" fill="#2d5e94"/><rect x="1073.35" y="577.57" width="326.12" height="808.95" fill="#ece1bc"/><rect x="1073" y="558.71" width="326.12" height="32.06" fill="#3a9ab0"/><rect x="1105.88" y="527.13" width="265.41" height="32.06" fill="#0f5e7a"/><rect x="1122.85" y="496.02" width="229.11" height="32.06" fill="#0f5e7a"/><rect x="1101.94" y="619.92" width="44.47" height="69.88" fill="#009ecd"/><rect x="1176.06" y="619.92" width="44.47" height="69.88" fill="#009ecd"/><rect x="1245.94" y="619.92" width="44.47" height="69.88" fill="#009ecd"/><rect x="1315.82" y="619.92" width="44.47" height="69.88" fill="#009ecd"/><rect x="1101.94" y="727.92" width="44.47" height="69.88" fill="#009ecd"/><rect x="1176.06" y="727.92" width="44.47" height="69.88" fill="#009ecd"/><rect x="1245.94" y="727.92" width="44.47" height="69.88" fill="#009ecd"/><rect x="1315.82" y="727.92" width="44.47" height="69.88" fill="#009ecd"/><rect x="1101.94" y="842.28" width="44.47" height="69.88" fill="#009ecd"/><rect x="1176.06" y="842.28" width="44.47" height="69.88" fill="#009ecd"/><rect x="1245.94" y="842.28" width="44.47" height="69.88" fill="#009ecd"/><rect x="1315.82" y="842.28" width="44.47" height="69.88" fill="#009ecd"/><rect x="1101.94" y="948.16" width="44.47" height="69.88" fill="#009ecd"/><rect x="1176.06" y="948.16" width="44.47" height="69.88" fill="#009ecd"/><rect x="1245.94" y="948.16" width="44.47" height="69.88" fill="#009ecd"/><rect x="1315.82" y="948.16" width="44.47" height="69.88" fill="#009ecd"/><rect x="1101.94" y="1060.4" width="44.47" height="69.88" fill="#009ecd"/><rect x="1176.06" y="1060.4" width="44.47" height="69.88" fill="#009ecd"/><rect x="1245.94" y="1060.4" width="44.47" height="69.88" fill="#009ecd"/><rect x="1315.82" y="1060.4" width="44.47" height="69.88" fill="#009ecd"/><rect x="1101.94" y="1162.04" width="44.47" height="69.88" fill="#009ecd"/><rect x="1176.06" y="1162.04" width="44.47" height="69.88" fill="#009ecd"/><rect x="1245.94" y="1162.04" width="44.47" height="69.88" fill="#009ecd"/><rect x="1315.82" y="1162.04" width="44.47" height="69.88" fill="#009ecd"/><rect x="1101.94" y="1265.81" width="44.47" height="69.88" fill="#009ecd"/><rect x="1176.06" y="1265.81" width="44.47" height="69.88" fill="#009ecd"/><rect x="1245.94" y="1265.81" width="44.47" height="69.88" fill="#009ecd"/><rect x="1315.82" y="1265.81" width="44.47" height="69.88" fill="#009ecd"/><rect x="1667" y="782" width="294" height="24" fill="#d8d7cf"/><rect x="2027" y="782" width="294" height="24" fill="#d8d7cf"/><rect x="1667" y="839" width="294" height="24" fill="#d8d7cf"/><rect x="2027" y="839" width="294" height="24" fill="#d8d7cf"/><rect x="1667" y="899" width="294" height="24" fill="#d8d7cf"/><rect x="2027" y="899" width="294" height="24" fill="#d8d7cf"/><rect x="1667" y="950" width="294" height="24" fill="#d8d7cf"/><rect x="2027" y="950" width="294" height="24" fill="#d8d7cf"/><rect x="1670" y="1010" width="294" height="24" fill="#d8d7cf"/><rect x="2030" y="1010" width="294" height="24" fill="#d8d7cf"/><rect x="2250" y="219" width="429.75" height="1163" fill="#ebe7e6"/><rect x="2250" y="261.97" width="429.75" height="1085.11" fill="#e4dedc"/><rect x="2250" y="298.23" width="429.75" height="26.86" fill="#d4cac8"/><rect x="2250" y="349.27" width="429.75" height="26.86" fill="#d4cac8"/><rect x="2250" y="454.02" width="429.75" height="26.86" fill="#d4cac8"/><rect x="2250" y="499.68" width="429.75" height="26.86" fill="#d4cac8"/><rect x="2250" y="548.02" width="429.75" height="26.86" fill="#d4cac8"/><rect x="2250" y="593.68" width="429.75" height="26.86" fill="#d4cac8"/><rect x="2250" y="642.03" width="429.75" height="26.86" fill="#d4cac8"/><rect x="2250" y="738.72" width="429.75" height="26.86" fill="#d4cac8"/><rect x="2250" y="784.38" width="429.75" height="26.86" fill="#d4cac8"/><rect x="2250" y="832.73" width="429.75" height="26.86" fill="#d4cac8"/><rect x="2250" y="929.42" width="429.75" height="26.86" fill="#d4cac8"/><rect x="2250" y="975.08" width="429.75" height="26.86" fill="#d4cac8"/><rect x="2250" y="1023.43" width="429.75" height="26.86" fill="#d4cac8"/><rect x="2250" y="1077.15" width="429.75" height="26.86" fill="#d4cac8"/><rect x="2250" y="1122.81" width="429.75" height="26.86" fill="#d4cac8"/><rect x="2250" y="1171.16" width="429.75" height="26.86" fill="#d4cac8"/><rect x="2250" y="1222.19" width="429.75" height="26.86" fill="#d4cac8"/><rect x="2250" y="1273.22" width="429.75" height="26.86" fill="#d4cac8"/><rect x="2306.4" y="261.97" width="61.78" height="1085.11" fill="#e4dedc"/><rect x="2440.7" y="261.97" width="61.78" height="1085.11" fill="#e4dedc"/><rect x="2580.37" y="261.97" width="61.78" height="1085.11" fill="#e4dedc"/></g></g><g id="图层_2" data-name="图层 2"><line x1="1740" y1="552" x2="1920" y2="662" fill="none" stroke="#1d5e99" stroke-miterlimit="10" stroke-width="8"/><line x1="1741.84" y1="664.91" x2="1918.16" y2="549.09" fill="none" stroke="#1d5e99" stroke-miterlimit="10" stroke-width="8"/><line x1="1722" y1="696" x2="1928" y2="806" fill="none" stroke="#1d5e99" stroke-miterlimit="10" stroke-width="8"/><line x1="1724.11" y1="808.91" x2="1925.89" y2="693.09" fill="none" stroke="#1d5e99" stroke-miterlimit="10" stroke-width="8"/><line x1="1686" y1="841.78" x2="1964" y2="990.22" fill="none" stroke="#1d5e99" stroke-miterlimit="10" stroke-width="8"/><line x1="1688.85" y1="994.15" x2="1961.15" y2="837.85" fill="none" stroke="#1d5e99" stroke-miterlimit="10" stroke-width="8"/><path d="M1705,2112l19-13h73l-11,13Z" transform="translate(-85 -885)" fill="#1578af"/><path d="M2029,2112l19-13h73l-11,13Z" transform="translate(-85 -885)" fill="#1578af"/><line x1="1686" y1="991.78" x2="1964" y2="1140.22" fill="none" stroke="#1d5e99" stroke-miterlimit="10" stroke-width="8"/><line x1="1688.85" y1="1144.15" x2="1961.15" y2="987.85" fill="none" stroke="#1d5e99" stroke-miterlimit="10" stroke-width="8"/><polygon points="1750 464 1906 464 2010 1048 2008 1248 1967.5 1248 1959.5 971.5 1873.5 495.5 1776 494 1699.5 987.5 1685.5 1229.5 1645.5 1229.5 1651.5 975.5 1750 464" fill="#2b79ce"/><circle cx="1839" cy="454" r="69" fill="#084254"/><circle cx="1827" cy="456" r="69" fill="#2fa6ef"/><rect x="1620" y="1227" width="81" height="78" fill="#7cc8fb"/><polygon points="1712 1214 1701 1227 1701 1305 1713 1289 1712 1214" fill="#106f99"/><rect x="1944" y="1227" width="81" height="78" fill="#7cc8fb"/><polygon points="2036 1214 2025 1227 2025 1305 2037 1289 2036 1214" fill="#106f99"/><circle cx="1864.29" cy="45.06" r="39.5" fill="#3187d8"/><path d="M2186.91,1010.91s1.07,25.37,2.51,42.31,11.87,19.18,10.45,31.75-33.28,40.54-67.81,67.35c-47.6,37-71.55,36.52-94.07,35.51s-57.48-43.22-69-39S2186.91,1010.91,2186.91,1010.91Z" transform="translate(-85 -885)" fill="#3187d8"/><ellipse cx="2072.73" cy="1072.63" rx="133.32" ry="61.72" transform="translate(-343.62 295.07) rotate(-30)" fill="#4cbbf2"/><ellipse cx="2072.73" cy="1072.63" rx="104.64" ry="48.45" transform="translate(-343.62 295.07) rotate(-30)" fill="#8adaf9"/><line x1="2031.55" y1="148.13" x2="1863.67" y2="39.5" fill="none" stroke="#1d5e99" stroke-linecap="round" stroke-linejoin="round" stroke-width="10"/><line x1="1866.14" y1="37.03" x2="1935.27" y2="209.85" fill="none" stroke="#1d5e99" stroke-linecap="round" stroke-linejoin="round" stroke-width="10"/><circle cx="1871.08" cy="39.5" r="39.5" fill="#2fa6ef"/></g><g id="图层_1" data-name="图层 1"><path d="M1174.08,1834.47h-131.7V1575.1s-196.13-12-209-13.48v272.85H653.55l317.76-647.74L726.72,1139,346.25,2066.29H833.34v184.1h209v-184.1h131.7Z" transform="translate(-85 -885)" fill="#9e6500"/><path d="M833.34,1561.62v-.15C832.42,1561.47,832.46,1561.52,833.34,1561.62Z" transform="translate(-85 -885)" fill="#9e6500"/><path d="M1152.08,1834.47h-131.7V1575.1s-196.13-12-209-13.48v272.85H631.55l317.76-647.74L704.72,1139,324.25,2066.29H811.34v184.1h209v-184.1h131.7Z" transform="translate(-85 -885)" fill="#fcac04"/><path d="M811.34,1561.62v-.15C810.42,1561.47,810.46,1561.52,811.34,1561.62Z" transform="translate(-85 -885)" fill="#fcac04"/><path d="M2711.75,1834.47h-131.7V1600.1s-196.14-12-209.05-13.48v247.85H2191.22L2509,1186.73,2264.38,1139l-380.46,927.29H2371v184.1h209.05v-184.1h131.7Z" transform="translate(-85 -885)" fill="#9e6500"/><path d="M2371,1586.62v-.15C2370.08,1586.47,2370.13,1586.52,2371,1586.62Z" transform="translate(-85 -885)" fill="#9e6500"/><path d="M2693.75,1834.47h-131.7V1600.1s-196.14-12-209.05-13.48v247.85H2173.22L2491,1186.73,2246.38,1139l-380.46,927.29H2353v184.1h209.05v-184.1h131.7Z" transform="translate(-85 -885)" fill="#fcac04"/><path d="M2353,1586.62v-.15C2352.08,1586.47,2352.13,1586.52,2353,1586.62Z" transform="translate(-85 -885)" fill="#fcac04"/><path d="M1567,1220.09c-202,0-365.84,229-365.84,511.38S1365,2242.84,1567,2242.84s365.83-229,365.83-511.37S1769,1220.09,1567,1220.09Zm-4.19,876.4c-79.66,0-144.24-159.56-144.24-356.38s64.58-356.38,144.24-356.38,144.25,159.56,144.25,356.38S1642.48,2096.49,1562.81,2096.49Z" transform="translate(-85 -885)" fill="#9e6500"/><path d="M1547,1220.09c-202,0-365.84,229-365.84,511.38S1345,2242.84,1547,2242.84s365.83-229,365.83-511.37S1749,1220.09,1547,1220.09Zm-4.19,876.4c-79.66,0-144.24-159.56-144.24-356.38s64.58-356.38,144.24-356.38,144.25,159.56,144.25,356.38S1622.48,2096.49,1542.81,2096.49Z" transform="translate(-85 -885)" fill="#fcac04"/></g><g id="图层_3" data-name="图层 3"><path d="M300.45,1942.43s-80.06-4-120.09-66l-40,12s48,98.07,148.11,100.08l14,4Z" transform="translate(-85 -885)" fill="#8b8780"/><rect x="298.35" y="1211.62" width="77.03" height="106.32" fill="#7a7976"/><rect x="302.69" y="886.15" width="64.01" height="109.58" rx="25.71" fill="#8e9999"/><circle cx="334.7" cy="864.99" r="78.66" fill="#616b6b"/><rect x="174.67" y="950.16" width="318.97" height="324.39" rx="28.98" fill="#7a7976"/><path d="M419.15,1710.39l-76.09,57.28a78.29,78.29,0,0,0,15.35,31.6,76.57,76.57,0,0,0,15.18-1c32.55-5.43,52.07-6.51,68.35-3.26,11.09,2.22,21.18,8.47,30.95,12.92a78.59,78.59,0,0,0,23.95-42.55Z" transform="translate(-85 -885)" fill="#565e5e"/><rect x="321.14" y="675.67" width="17.36" height="74.86" fill="#414747"/><path d="M577.55,1609.49H261.84a16.32,16.32,0,0,0-16.27,16.28V1757a48.74,48.74,0,0,0,16.95,36.89H328c29.29,0,15.18-33.63,93.3-33.63,58.59,0,61.84,36.88,74.86,36.88,9,0,49.71,1,73.93,1.68A48.91,48.91,0,0,0,593.83,1757V1625.77A16.33,16.33,0,0,0,577.55,1609.49Z" transform="translate(-85 -885)" fill="#acb6b7"/><path d="M294.9,1793.93H328c29.29,0,15.18-33.63,93.3-33.63,51,0,60.06,27.89,70.13,35.16H533.3a42.2,42.2,0,0,0,42.08-42.08V1646.3a14.06,14.06,0,0,0-14-14H278a14.06,14.06,0,0,0-14,14v107.08A42.25,42.25,0,0,0,294.9,1793.93Z" transform="translate(-85 -885)" fill="#909fa2"/><circle cx="246.28" cy="826.48" r="52.08" fill="#acb6b7"/><circle cx="246.28" cy="826.48" r="40.14" fill="#cccece"/><circle cx="246.28" cy="826.48" r="27.12" fill="#333"/><circle cx="233.8" cy="817.25" r="9.22" fill="#fdffff"/><circle cx="254.96" cy="834.07" r="6.51" fill="#fdffff"/><circle cx="423.12" cy="826.48" r="52.08" fill="#acb6b7"/><circle cx="423.12" cy="826.48" r="40.14" fill="#cccece"/><circle cx="423.12" cy="826.48" r="27.12" fill="#333"/><circle cx="410.64" cy="817.25" r="9.22" fill="#fdffff"/><circle cx="431.8" cy="834.07" r="6.51" fill="#fdffff"/><circle cx="328.19" cy="674.04" r="20.07" fill="#6f8eb9"/><ellipse cx="333.07" cy="878.01" rx="29.29" ry="20.07" fill="#313535"/><rect x="209.39" y="974.02" width="241.94" height="200.71" rx="13.02" fill="#909fa2"/><rect x="225.66" y="994.64" width="202.88" height="23.87" rx="11.93" fill="#829092"/><rect x="225.66" y="1038.03" width="202.88" height="23.87" rx="11.93" fill="#829092"/><rect x="225.66" y="1083.6" width="202.88" height="23.87" rx="11.93" fill="#829092"/><path d="M259.67,2130.25v.32a29,29,0,0,0,29,29h261a29,29,0,0,0,29-29v-.32Z" transform="translate(-85 -885)" fill="#665f53"/><path d="M482.56,2242a43.1,43.1,0,0,0,2.77-15.19h0c0-28.16-27.53-51-61.5-51H419.9c-34,0-61.5,22.83-61.5,51h0a42.89,42.89,0,0,0,2.78,15.19Z" transform="translate(-85 -885)" fill="#7a7976"/><path d="M358.91,2233.32a43,43,0,0,0,2.26,8.68H482.56a43.65,43.65,0,0,0,2.27-8.68Z" transform="translate(-85 -885)" fill="#665f53"/><rect x="298.35" y="1295.16" width="77.03" height="6.51" fill="#665f53"/><path d="M137.08,1906.76A52.14,52.14,0,0,1,85,1854.68h24.51a27.57,27.57,0,1,0,27.57-27.57v-24.5a52.08,52.08,0,0,1,0,104.15Z" transform="translate(-85 -885)" fill="#e0dcd5"/><path d="M640.83,1959.88c-14-33.91-44.06-65.53-63.28-83.44v65c49.23,74.08,4.07,126.08,4.07,126.08l37.68,26.91S662.36,2011.91,640.83,1959.88Z" transform="translate(-85 -885)" fill="#8b8780"/><path d="M626.37,2104.22a52.13,52.13,0,0,1-52.07,52.07v-24.5a27.57,27.57,0,1,0,0-55.14,27.57,27.57,0,0,0-27.57,27.57H522.22a52.08,52.08,0,1,1,104.15,0Z" transform="translate(-85 -885)" fill="#e0dcd5"/></g><g id="图层_4" data-name="图层 4"><ellipse cx="2544.17" cy="1293.91" rx="162.98" ry="66.09" fill="#9d9ea2"/><path d="M2692.7,1882.51s132,6.6,171.55,52.78l-28.59,19.8s-71.48-40-108.13-41.42S2682.07,1901.21,2692.7,1882.51Z" transform="translate(-85 -885)" fill="#bdbbbb"/><path d="M2924.63,1956.24,2902.8,1962a29.38,29.38,0,0,0-46.33-15.73,29.37,29.37,0,0,0,3.51,48.8l-11.08,19.67a51.93,51.93,0,1,1,75.73-58.49Z" transform="translate(-85 -885)" fill="#dcdee2"/><path d="M2559.7,1886.21s-46.88-4.44-79.2,5.07-68.43,44.35-68.43,44.35l22.81,16.47s64.95-44.67,103-42.77S2559.7,1886.21,2559.7,1886.21Z" transform="translate(-85 -885)" fill="#bdbbbb"/><path d="M2440.05,2027.19l-16.85-18.93a32.95,32.95,0,1,0-54.86-26l-25.32-1.09a58.3,58.3,0,1,1,97,46.07Z" transform="translate(-85 -885)" fill="#dcdee2"/><rect x="2469.81" y="945.41" width="145.71" height="79.61" fill="#ddd"/><rect x="2533.4" y="691.05" width="25.04" height="70.1" fill="#bcbcc1"/><path d="M2470.82,1804c-33.41-54.7,23.88-168.41,117.5-182.43s163.62,29.09,192,83,.52,129.28-74.92,146.53S2504.23,1858.73,2470.82,1804Z" transform="translate(-85 -885)" fill="#cecdd4"/><path d="M2624.41,1806.38s-35.79,21.59-63.09,23c-38.05,2-93.13-37.05-66.09-104.15s114.16-87.12,172.24-72.1,95.14,70.6,93.13,110.66-39.55,70.1-74.6,65.09S2638.43,1808.38,2624.41,1806.38Z" transform="translate(-85 -885)" fill="#6f8eb9"/><circle cx="2481.83" cy="856.79" r="40.56" fill="#a0bde0"/><circle cx="2481.83" cy="856.79" r="34.55" fill="#f8fcff"/><circle cx="2481.83" cy="856.79" r="22.53" fill="#111"/><circle cx="2473.82" cy="853.28" r="7.01" fill="#fff"/><circle cx="2487.84" cy="861.29" r="4.51" fill="#fff"/><circle cx="2601" cy="856.79" r="40.56" fill="#a0bde0"/><circle cx="2601" cy="856.79" r="34.55" fill="#f8fcff"/><circle cx="2601" cy="856.79" r="22.53" fill="#111"/><circle cx="2592.99" cy="853.28" r="7.01" fill="#fff"/><circle cx="2607.01" cy="861.29" r="4.51" fill="#fff"/><rect x="2519.38" y="938.9" width="7.51" height="25.54" rx="3.76" fill="#4e75a5"/><rect x="2537.41" y="938.9" width="7.51" height="25.54" rx="3.76" fill="#4e75a5"/><rect x="2554.43" y="938.9" width="7.51" height="25.54" rx="3.76" fill="#4e75a5"/><circle cx="2544.92" cy="682.54" r="26.54" fill="#cdcdd3"/><path d="M2556.45,1885s85.52,10.47,146.61,1.74c0,0,89,82,106.47,188.51s-31.42,118.68-68.07,132.65-202.47,40.14-295-47.13c0,0-10.48-108.21,31.41-176.28S2556.45,1885,2556.45,1885Z" transform="translate(-85 -885)" fill="#c8c9cd"/><path d="M2545,1986.63s74.62,24,166.6,3l6.94,100.64s-147.51,21-178.75-7.51Z" transform="translate(-85 -885)" fill="#dcdee2"/><path d="M2503.74,2091.78c-14.45-57.77,40.56-189.29,44.81-199.32-13,12.94-40.46,43-70.65,92-41.89,68.07-31.41,176.28-31.41,176.28,48.5,45.76,117.16,60.33,176.78,61.82C2571.36,2200.07,2516.24,2141.77,2503.74,2091.78Z" transform="translate(-85 -885)" fill="#dcdee2" opacity="0.43"/></g><g id="图层_5" data-name="图层 5"><path d="M1080.89,2153.74l95.45-163.15s18.76-27.74,59.55-16.31c0,0,15.5-.82,32.63,25.28s98.71,173.76,98.71,173.76,12.23,31.82-14.69,53.84-35.08,16.32-35.08,16.32h-207.2s-41.6-17.95-39.16-48.95S1080.89,2153.74,1080.89,2153.74Z" transform="translate(-85 -885)" fill="#333032"/><path d="M1114.72,2145.3,1187,2021.68s13-24.11,45.12-12.37c0,0,11.74-.61,24.72,19.17s74.8,131.65,74.8,131.65,9.27,24.11-11.13,40.8-26.58,12.36-26.58,12.36H1137s-31.52-13.6-29.67-37.08S1114.72,2145.3,1114.72,2145.3Z" transform="translate(-85 -885)" fill="#feed01"/><path d="M1256.88,2028.48c-13-19.78-24.72-19.17-24.72-19.17a53.32,53.32,0,0,0-11.77-2.91v206.89H1294s6.18,4.33,26.58-12.36,11.13-40.79,11.13-40.79S1269.86,2048.26,1256.88,2028.48Z" transform="translate(-85 -885)" fill="#ffcc01"/><polygon points="1110.1 1180.64 1098.68 1239.38 1134.57 1239.38 1128.05 1259.77 1116.63 1259.77 1132.94 1305.45 1172.91 1260.59 1157.01 1258.55 1165.98 1217.76 1129.27 1217.76 1138.24 1180.23 1110.1 1180.64" fill="#333032"/><path d="M787.91,2262c-5.7-37.72-23.67-157.17-29.49-203.67-6.94-55.55-6.91-101.63-45.14-79.86-31.93,18.19-49.56,221-54.26,283.53Z" transform="translate(-85 -885)" fill="#dcdee2"/><path d="M682.09,2066.25h77.34c-.36-2.81-.7-5.45-1-7.88-.87-7-1.63-13.78-2.37-20.33H687.89C685.85,2046.87,683.92,2056.34,682.09,2066.25Z" transform="translate(-85 -885)" fill="#ff5619"/><path d="M670.9,2140.92h99c-1.66-11.42-3.27-22.63-4.77-33.19h-89.8C673.75,2118.72,672.27,2129.86,670.9,2140.92Z" transform="translate(-85 -885)" fill="#ff5619"/><path d="M663.22,2212.27H780.43c-1.56-10.45-3.22-21.67-4.93-33.19h-109C665.29,2190.7,664.19,2201.86,663.22,2212.27Z" transform="translate(-85 -885)" fill="#ff5619"/><rect x="557" y="1365.43" width="160.95" height="21.57" rx="10.79" fill="#dcdee2"/><path d="M642.3,2258.73A10.75,10.75,0,0,0,652.79,2272H792.16a10.75,10.75,0,0,0,10.49-13.27Z" transform="translate(-85 -885)" fill="#cecece"/><rect x="16" y="1360" width="2836" height="80" rx="40" fill="#939393"/></g></svg>